<?xml version="1.0" encoding="UTF-8" standalone="no"?>
<!-- Created with Inkscape (http://www.inkscape.org/) -->

<svg
   width="210mm"
   height="297mm"
   viewBox="0 0 210 297"
   version="1.1"
   id="svg5"
   inkscape:version="1.2.2 (732a01da63, 2022-12-09)"
   sodipodi:docname="SVM-diagram.svg"
   xmlns:inkscape="http://www.inkscape.org/namespaces/inkscape"
   xmlns:sodipodi="http://sodipodi.sourceforge.net/DTD/sodipodi-0.dtd"
   xmlns="http://www.w3.org/2000/svg"
   xmlns:svg="http://www.w3.org/2000/svg">
  <sodipodi:namedview
     id="namedview7"
     pagecolor="#ffffff"
     bordercolor="#000000"
     borderopacity="0.25"
     inkscape:showpageshadow="2"
     inkscape:pageopacity="0.0"
     inkscape:pagecheckerboard="0"
     inkscape:deskcolor="#d1d1d1"
     inkscape:document-units="mm"
     showgrid="false"
     inkscape:zoom="1.6826843"
     inkscape:cx="431.15633"
     inkscape:cy="446.31069"
     inkscape:window-width="1920"
     inkscape:window-height="986"
     inkscape:window-x="-11"
     inkscape:window-y="1609"
     inkscape:window-maximized="1"
     inkscape:current-layer="layer1" />
  <defs
     id="defs2">
    <marker
       style="overflow:visible"
       id="Arrow3"
       refX="0"
       refY="0"
       orient="auto-start-reverse"
       inkscape:stockid="Arrow3"
       markerWidth="4.2071066"
       markerHeight="7"
       viewBox="0 0 4.2071068 7"
       inkscape:isstock="true"
       inkscape:collect="always"
       preserveAspectRatio="xMidYMid">
      <path
         style="fill:none;stroke:context-stroke;stroke-width:1;stroke-linecap:round"
         d="M 3,-3 0,0 3,3"
         id="arrow3"
         transform="rotate(180,0.125,0)"
         sodipodi:nodetypes="ccc" />
    </marker>
    <clipPath
       id="clipPath290">
      <path
         clip-rule="nonzero"
         d="M 0,3 H 5 V 9.980469 H 0 Z m 0,0"
         id="path5391" />
    </clipPath>
    <clipPath
       id="clipPath6098">
      <path
         clip-rule="nonzero"
         d="M 6,0 H 9 V 9.980469 H 6 Z m 0,0"
         id="path7596" />
    </clipPath>
    <clipPath
       id="clipPath2729">
      <path
         clip-rule="nonzero"
         d="m 15,3 h 2 v 6.980469 h -2 z m 0,0"
         id="path6692" />
    </clipPath>
    <clipPath
       id="clipPath2082">
      <path
         clip-rule="nonzero"
         d="m 31,0 h 3 v 9.980469 h -3 z m 0,0"
         id="path1797" />
    </clipPath>
    <clipPath
       id="clipPath6314">
      <path
         clip-rule="nonzero"
         d="M 0,4 H 7 V 14.851563 H 0 Z m 0,0"
         id="path7929" />
    </clipPath>
    <clipPath
       id="clipPath189">
      <path
         clip-rule="nonzero"
         d="m 8,0 h 4 V 14.851563 H 8 Z m 0,0"
         id="path9402" />
    </clipPath>
    <clipPath
       id="clipPath1813">
      <path
         clip-rule="nonzero"
         d="m 22,5 h 2 v 9.851563 h -2 z m 0,0"
         id="path9312" />
    </clipPath>
    <clipPath
       id="clipPath3854">
      <path
         clip-rule="nonzero"
         d="m 43,0 h 4 v 14.851563 h -4 z m 0,0"
         id="path9807" />
    </clipPath>
    <clipPath
       id="clipPath9128">
      <path
         clip-rule="nonzero"
         d="m 8,0 h 4 V 14.347656 H 8 Z m 0,0"
         id="path7678" />
    </clipPath>
    <clipPath
       id="clipPath7853">
      <path
         clip-rule="nonzero"
         d="m 40,0 h 4 v 14.347656 h -4 z m 0,0"
         id="path7877" />
    </clipPath>
    <clipPath
       id="clipPath5475">
      <path
         clip-rule="nonzero"
         d="m 64,1 h 6.777344 V 12 H 64 Z m 0,0"
         id="path1148" />
    </clipPath>
    <clipPath
       id="clipPath6456">
      <path
         clip-rule="nonzero"
         d="m 0,4 h 12 v 7.265625 H 0 Z m 0,0"
         id="path8899" />
    </clipPath>
    <clipPath
       id="clipPath1458">
      <path
         clip-rule="nonzero"
         d="m 9,9 h 5 V 20.703125 H 9 Z m 0,0"
         id="path6948" />
    </clipPath>
    <clipPath
       id="clipPath8849">
      <path
         clip-rule="nonzero"
         d="M 2,9 H 6 V 20.703125 H 2 Z m 0,0"
         id="path1641" />
    </clipPath>
    <clipPath
       id="clipPath2655">
      <path
         clip-rule="nonzero"
         d="m 20,9 h 5 v 11.703125 h -5 z m 0,0"
         id="path2540" />
    </clipPath>
    <clipPath
       id="clipPath2206">
      <path
         clip-rule="nonzero"
         d="m 13,8 h 5 v 11.035156 h -5 z m 0,0"
         id="path3562" />
    </clipPath>
    <clipPath
       id="clipPath9662">
      <path
         clip-rule="nonzero"
         d="m 31,8 h 5 v 11.035156 h -5 z m 0,0"
         id="path9463" />
    </clipPath>
  </defs>
  <g
     inkscape:label="Layer 1"
     inkscape:groupmode="layer"
     id="layer1">
    <path
       style="fill:#000000;stroke:#000000;stroke-width:0.264583"
       d="M 99.844092,70.542021 99.120584,189.92083"
       id="path189" />
    <path
       style="fill:#000000;stroke:#000000;stroke-width:0.264583"
       d="M 159.5335,130.23142 40.154693,129.50791"
       id="path189-4" />
    <path
       style="fill:#000000;stroke:#000000;stroke-width:0.865;stroke-dasharray:none"
       d="M 45.775662,84.765072 190.10725,145.84242"
       id="path323" />
    <path
       style="fill:#0000fe;stroke:#0000ff;stroke-width:0.266064;stroke-dasharray:none;marker-end:url(#Arrow3);fill-opacity:1;stroke-opacity:1"
       d="M 62.405024,91.830691 67.665207,79.719398"
       id="path6510"
       sodipodi:nodetypes="cc" />
    <g
       inkscape:label=""
       transform="translate(147.10486,141.34298)"
       id="g9496">
      <g
         fill="#000000"
         fill-opacity="1"
         id="g44"
         transform="matrix(0.352778,0,0,0.352778,-0.0937066,-0.00317494)">
        <g
           id="use42"
           transform="translate(0,10.759)">
          <path
             d="M 4.84375,-1.828125 C 4.796875,-1.59375 4.765625,-1.53125 4.578125,-1.3125 c -0.59375,0.75 -1.1875,1.03125 -1.640625,1.03125 -0.46875,0 -0.921875,-0.375 -0.921875,-1.375 0,-0.75 0.4375,-2.359375 0.75,-3 0.421875,-0.8125 1.0625,-1.375 1.671875,-1.375 0.9375,0 1.125,1.171875 1.125,1.25 L 5.515625,-4.578125 Z M 5.734375,-5.375 C 5.546875,-5.796875 5.15625,-6.328125 4.4375,-6.328125 c -1.5625,0 -3.34375,1.96875 -3.34375,4.109375 C 1.09375,-0.734375 2,0 2.90625,0 3.671875,0 4.34375,-0.609375 4.609375,-0.890625 L 4.28125,0.40625 C 4.09375,1.1875 4,1.546875 3.484375,2.046875 2.890625,2.640625 2.359375,2.640625 2.03125,2.640625 1.609375,2.640625 1.25,2.609375 0.890625,2.5 1.34375,2.359375 1.46875,1.96875 1.46875,1.8125 c 0,-0.234375 -0.171875,-0.46875 -0.5,-0.46875 -0.34375,0 -0.703125,0.296875 -0.703125,0.765625 0,0.59375 0.578125,0.8125 1.796875,0.8125 1.859375,0 2.8125,-1.1875 3,-1.953125 l 1.59375,-6.4375 c 0.046875,-0.171875 0.046875,-0.203125 0.046875,-0.21875 0,-0.203125 -0.15625,-0.359375 -0.375,-0.359375 -0.34375,0 -0.546875,0.28125 -0.59375,0.671875 z m 0,0"
             id="path84" />
        </g>
      </g>
      <g
         clip-path="url(#clipPath9128)"
         id="g50"
         transform="matrix(0.352778,0,0,0.352778,-0.0937066,-0.00317494)">
        <g
           fill="#000000"
           fill-opacity="1"
           id="g48">
          <g
             id="use46"
             transform="translate(7.2410002,10.759)">
            <path
               d="m 4.65625,3.484375 c 0,-0.046875 0,-0.078125 -0.234375,-0.3125 -1.4375,-1.453125 -2.234375,-3.8125 -2.234375,-6.75 0,-2.78125 0.671875,-5.171875 2.328125,-6.859375 0.140625,-0.140625 0.140625,-0.15625 0.140625,-0.203125 0,-0.09375 -0.0625,-0.109375 -0.125,-0.109375 -0.1875,0 -1.359375,1.03125 -2.0625,2.4375 -0.734375,1.4375 -1.0625,2.984375 -1.0625,4.734375 0,1.28125 0.203125,2.984375 0.953125,4.53125 0.84375,1.71875 2.015625,2.640625 2.171875,2.640625 0.0625,0 0.125,-0.015625 0.125,-0.109375 z m 0,0"
               id="path88" />
          </g>
        </g>
      </g>
      <g
         fill="#000000"
         fill-opacity="1"
         id="g54"
         transform="matrix(0.352778,0,0,0.352778,-0.0937066,-0.00317494)">
        <g
           id="use52"
           transform="translate(12.704,10.759)">
          <path
             d="M 4.828125,-3.546875 6.5,-5.453125 C 6.65625,-5.640625 6.78125,-5.75 7.96875,-5.75 v -0.625 c -0.796875,0.03125 -0.828125,0.03125 -1.3125,0.03125 -0.421875,0 -1.03125,0 -1.4375,-0.03125 v 0.625 c 0.28125,0 0.578125,0.0625 0.578125,0.171875 0,0.03125 -0.078125,0.125 -0.109375,0.15625 L 4.453125,-4.015625 3.03125,-5.75 H 3.625 v -0.625 c -0.328125,0.03125 -1.296875,0.03125 -1.6875,0.03125 -0.4375,0 -1.203125,0 -1.609375,-0.03125 V -5.75 H 1.34375 l 2.234375,2.71875 -1.859375,2.109375 c -0.171875,0.203125 -0.265625,0.3125 -1.453125,0.3125 V 0 c 0.859375,-0.03125 0.875,-0.03125 1.328125,-0.03125 0.421875,0 1.015625,0 1.421875,0.03125 v -0.609375 c -0.28125,0 -0.578125,-0.078125 -0.578125,-0.171875 0,-0.015625 0,-0.03125 0.09375,-0.15625 l 1.4375,-1.609375 1.59375,1.9375 H 4.96875 V 0 c 0.34375,-0.03125 1.296875,-0.03125 1.703125,-0.03125 0.421875,0 1.1875,0 1.59375,0.03125 v -0.609375 h -1 z m 0,0"
             id="path92" />
        </g>
      </g>
      <g
         fill="#000000"
         fill-opacity="1"
         id="g58"
         transform="matrix(0.352778,0,0,0.352778,-0.0937066,-0.00317494)">
        <g
           id="use56"
           transform="translate(21.222,10.759)">
          <path
             d="m 2.640625,-5.5 c 0,-0.375 -0.328125,-0.6875 -0.6875,-0.6875 C 1.53125,-6.1875 1.25,-5.859375 1.25,-5.5 c 0,0.4375 0.359375,0.703125 0.6875,0.703125 0.390625,0 0.703125,-0.296875 0.703125,-0.703125 z m -0.25,5.359375 c 0,0.5 0,1.515625 -0.875,2.59375 C 1.4375,2.5625 1.4375,2.59375 1.4375,2.625 c 0,0.078125 0.0625,0.140625 0.140625,0.140625 0.09375,0 1.109375,-1.0625 1.109375,-2.734375 0,-0.53125 -0.046875,-1.421875 -0.75,-1.421875 -0.421875,0 -0.6875,0.3125 -0.6875,0.6875 C 1.25,-0.3125 1.515625,0 1.953125,0 c 0.265625,0 0.375,-0.09375 0.4375,-0.140625 z m 0,0"
             id="path96" />
        </g>
      </g>
      <g
         fill="#000000"
         fill-opacity="1"
         id="g62"
         transform="matrix(0.352778,0,0,0.352778,-0.0937066,-0.00317494)">
        <g
           id="use60"
           transform="translate(27.514999,10.759)">
          <path
             d="m 10.328125,-5.40625 c 0.09375,-0.25 0.140625,-0.34375 0.96875,-0.34375 v -0.625 c -0.40625,0.03125 -0.59375,0.03125 -1.109375,0.03125 -0.59375,0 -0.78125,0 -1.296875,-0.03125 v 0.625 c 0.125,0 0.828125,0 0.828125,0.1875 0,0.015625 0,0.03125 -0.046875,0.171875 L 8.15625,-1.65625 6.515625,-5.75 h 0.8125 v -0.625 c -0.34375,0.03125 -1.1875,0.03125 -1.578125,0.03125 -0.734375,0 -0.765625,0 -1.46875,-0.03125 V -5.75 H 5.125 c 0.03125,0.109375 0.109375,0.296875 0.171875,0.421875 0.03125,0.09375 0.1875,0.4375 0.1875,0.515625 0,0.015625 -0.046875,0.125 -0.0625,0.171875 L 4.328125,-1.9375 2.78125,-5.75 h 0.8125 v -0.625 c -0.328125,0.03125 -1.296875,0.03125 -1.6875,0.03125 -0.453125,0 -1.140625,0 -1.578125,-0.03125 v 0.625 h 0.84375 L 3.375,-0.28125 c 0.09375,0.25 0.15625,0.359375 0.46875,0.359375 0.15625,0 0.328125,0 0.4375,-0.296875 L 5.8125,-4.015625 7.328125,-0.25 c 0.125,0.328125 0.28125,0.328125 0.453125,0.328125 0.328125,0 0.359375,-0.09375 0.46875,-0.34375 z m 0,0"
             id="path100" />
        </g>
      </g>
      <g
         clip-path="url(#clipPath7853)"
         id="g68"
         transform="matrix(0.352778,0,0,0.352778,-0.0937066,-0.00317494)">
        <g
           fill="#000000"
           fill-opacity="1"
           id="g66">
          <g
             id="use64"
             transform="translate(39.395,10.759)">
            <path
               d="M 4.046875,-3.578125 C 4.046875,-4.65625 3.90625,-6.4375 3.09375,-8.109375 2.25,-9.828125 1.078125,-10.75 0.921875,-10.75 c -0.0625,0 -0.140625,0.01563 -0.140625,0.109375 0,0.04687 0,0.0625 0.25,0.3125 1.4375,1.453125 2.234375,3.8125 2.234375,6.75 0,2.78125 -0.671875,5.171875 -2.328125,6.859375 -0.15625,0.125 -0.15625,0.15625 -0.15625,0.203125 0,0.09375 0.078125,0.109375 0.140625,0.109375 0.1875,0 1.359375,-1.03125 2.0625,-2.4375 0.734375,-1.453125 1.0625,-3 1.0625,-4.734375 z m 0,0"
               id="path104" />
          </g>
        </g>
      </g>
      <g
         fill="#000000"
         fill-opacity="1"
         id="g72"
         transform="matrix(0.352778,0,0,0.352778,-0.0937066,-0.00317494)">
        <g
           id="use70"
           transform="translate(48.846275,10.759)">
          <path
             d="m 9.6875,-4.640625 c 0.203125,0 0.453125,0 0.453125,-0.265625 0,-0.265625 -0.25,-0.265625 -0.453125,-0.265625 H 1.234375 c -0.203125,0 -0.453125,0 -0.453125,0.25 0,0.28125 0.234375,0.28125 0.453125,0.28125 z m 0,2.65625 c 0.203125,0 0.453125,0 0.453125,-0.25 0,-0.28125 -0.25,-0.28125 -0.453125,-0.28125 H 1.234375 c -0.203125,0 -0.453125,0 -0.453125,0.265625 0,0.265625 0.234375,0.265625 0.453125,0.265625 z m 0,0"
             id="path108" />
        </g>
      </g>
      <g
         clip-path="url(#clipPath5475)"
         id="g78"
         transform="matrix(0.352778,0,0,0.352778,-0.0937066,-0.00317494)">
        <g
           fill="#000000"
           fill-opacity="1"
           id="g76">
          <g
             id="use74"
             transform="translate(63.760586,10.759)">
            <path
               d="m 6.421875,-4.59375 c 0,-1.1875 -0.0625,-2.34375 -0.578125,-3.4375 -0.59375,-1.1875 -1.625,-1.5 -2.328125,-1.5 -0.828125,0 -1.859375,0.40625 -2.375,1.59375 -0.40625,0.90625 -0.546875,1.796875 -0.546875,3.34375 0,1.390625 0.09375,2.4375 0.609375,3.453125 0.5625,1.09375 1.546875,1.4375 2.296875,1.4375 1.25,0 1.96875,-0.734375 2.375,-1.578125 0.515625,-1.078125 0.546875,-2.484375 0.546875,-3.3125 z M 3.5,0.015625 C 3.046875,0.015625 2.109375,-0.25 1.84375,-1.8125 1.671875,-2.671875 1.671875,-3.765625 1.671875,-4.765625 1.671875,-5.9375 1.671875,-7 1.90625,-7.84375 2.15625,-8.8125 2.890625,-9.25 3.5,-9.25 c 0.546875,0 1.375,0.328125 1.65625,1.5625 0.171875,0.8125 0.171875,1.953125 0.171875,2.921875 0,0.96875 0,2.046875 -0.15625,2.921875 C 4.90625,-0.265625 4,0.015625 3.5,0.015625 Z m 0,0"
               id="path112" />
          </g>
        </g>
      </g>
    </g>
    <g
       inkscape:label=""
       transform="translate(66.942893,84.39921)"
       id="g10405">
      <g
         clip-path="url(#clipPath6456)"
         id="g21"
         transform="matrix(0.352778,0,0,0.352778,-0.115755,0.0115535)">
        <g
           fill="#000000"
           fill-opacity="1"
           id="g19">
          <g
             id="use17"
             transform="translate(0,11.267)">
            <path
               d="m 10.328125,-5.40625 c 0.09375,-0.25 0.140625,-0.34375 0.96875,-0.34375 v -0.625 c -0.40625,0.03125 -0.59375,0.03125 -1.109375,0.03125 -0.59375,0 -0.78125,0 -1.296875,-0.03125 v 0.625 c 0.125,0 0.828125,0 0.828125,0.1875 0,0.015625 0,0.03125 -0.046875,0.171875 L 8.15625,-1.65625 6.515625,-5.75 h 0.8125 v -0.625 c -0.34375,0.03125 -1.1875,0.03125 -1.578125,0.03125 -0.734375,0 -0.765625,0 -1.46875,-0.03125 V -5.75 H 5.125 c 0.03125,0.109375 0.109375,0.296875 0.171875,0.421875 0.03125,0.09375 0.1875,0.4375 0.1875,0.515625 0,0.015625 -0.046875,0.125 -0.0625,0.171875 L 4.328125,-1.9375 2.78125,-5.75 h 0.8125 v -0.625 c -0.328125,0.03125 -1.296875,0.03125 -1.6875,0.03125 -0.453125,0 -1.140625,0 -1.578125,-0.03125 v 0.625 h 0.84375 L 3.375,-0.28125 c 0.09375,0.25 0.15625,0.359375 0.46875,0.359375 0.15625,0 0.328125,0 0.4375,-0.296875 L 5.8125,-4.015625 7.328125,-0.25 c 0.125,0.328125 0.28125,0.328125 0.453125,0.328125 0.328125,0 0.359375,-0.09375 0.46875,-0.34375 z m 0,0"
               id="path31" />
          </g>
        </g>
      </g>
      <g
         fill="#000000"
         fill-opacity="1"
         id="g25"
         transform="matrix(0.352778,0,0,0.352778,-0.115755,0.0115535)">
        <g
           id="use23"
           transform="translate(11.88,6.0609999)">
          <path
             d="m 2.765625,-5.1875 c 0.046875,-0.125 0.09375,-0.21875 0.09375,-0.328125 0,-0.3125 -0.28125,-0.578125 -0.625,-0.578125 -0.296875,0 -0.5,0.203125 -0.578125,0.484375 L 0.359375,-0.84375 c 0,0.03125 -0.046875,0.140625 -0.046875,0.15625 0,0.125 0.28125,0.203125 0.375,0.203125 0.0625,0 0.078125,-0.046875 0.140625,-0.1875 z m 0,0"
             id="path35" />
        </g>
      </g>
    </g>
    <rect
       style="fill:#ffffff;fill-opacity:1;stroke:#000000;stroke-width:0.264999;stroke-dasharray:none"
       id="rect11590"
       width="2.3726587"
       height="2.3726587"
       x="56.471748"
       y="-96.334625"
       transform="rotate(113.58693)" />
    <rect
       style="fill:#ffffff;fill-opacity:1;stroke:#000000;stroke-width:0.264999;stroke-dasharray:none"
       id="rect11590-3"
       width="2.3726587"
       height="2.3726587"
       x="58.883472"
       y="-143.45801"
       transform="rotate(113.58693)" />
    <path
       style="display:inline;opacity:1;fill:#ff0000;fill-opacity:1;stroke:#ff0000;stroke-width:0.264999;stroke-dasharray:none;stroke-opacity:1"
       d="m 99.431307,129.86578 8.489143,-18.33293"
       id="path17027"
       inkscape:label="path17027"
       sodipodi:nodetypes="cc" />
    <g
       inkscape:label=""
       transform="translate(104.95724,119.81578)"
       id="g20004">
      <g
         fill="#000000"
         fill-opacity="1"
         id="g38"
         transform="matrix(0.352778,0,0,0.352778,-0.418924,0.046258)">
        <g
           id="use36"
           transform="translate(0,10.817)">
          <path
             d="m 9.453125,-3.296875 c 0.25,0 0.5,0 0.5,-0.28125 0,-0.296875 -0.25,-0.296875 -0.5,-0.296875 H 1.6875 c -0.234375,0 -0.5,0 -0.5,0.296875 0,0.28125 0.265625,0.28125 0.5,0.28125 z m 0,0"
             id="path78" />
        </g>
      </g>
      <g
         fill="#000000"
         fill-opacity="1"
         id="g42"
         transform="matrix(0.352778,0,0,0.352778,-0.418924,0.046258)">
        <g
           id="use40"
           transform="translate(18.290001,4.697)">
          <path
             d="M 5.03125,-3.703125 C 5.09375,-3.9375 5.203125,-4.34375 5.203125,-4.40625 c 0,-0.203125 -0.15625,-0.296875 -0.3125,-0.296875 -0.140625,0 -0.328125,0.09375 -0.40625,0.3125 -0.03125,0.078125 -0.546875,2.15625 -0.625,2.4375 -0.078125,0.328125 -0.09375,0.53125 -0.09375,0.71875 0,0.125 0,0.140625 0.015625,0.203125 -0.265625,0.578125 -0.578125,0.90625 -1.015625,0.90625 -0.875,0 -0.875,-0.796875 -0.875,-0.984375 0,-0.359375 0.0625,-0.78125 0.578125,-2.125 0.109375,-0.328125 0.1875,-0.46875 0.1875,-0.6875 0,-0.5 -0.359375,-0.90625 -0.90625,-0.90625 -1.03125,0 -1.4375,1.59375 -1.4375,1.6875 0,0.109375 0.109375,0.109375 0.140625,0.109375 C 0.5625,-3.03125 0.5625,-3.046875 0.625,-3.234375 0.921875,-4.25 1.34375,-4.578125 1.71875,-4.578125 1.828125,-4.578125 2,-4.5625 2,-4.21875 2,-3.953125 1.875,-3.640625 1.796875,-3.453125 1.3125,-2.171875 1.1875,-1.671875 1.1875,-1.25 c 0,0.984375 0.734375,1.375 1.546875,1.375 0.1875,0 0.703125,0 1.140625,-0.765625 0.28125,0.6875 1.03125,0.765625 1.359375,0.765625 0.8125,0 1.296875,-0.6875 1.578125,-1.34375 0.375,-0.859375 0.71875,-2.3125 0.71875,-2.84375 0,-0.59375 -0.296875,-0.765625 -0.46875,-0.765625 -0.28125,0 -0.546875,0.296875 -0.546875,0.53125 0,0.140625 0.0625,0.203125 0.15625,0.296875 0.125,0.125 0.390625,0.40625 0.390625,0.921875 0,0.375 -0.3125,1.4375 -0.59375,2 C 6.1875,-0.5 5.796875,-0.125 5.265625,-0.125 c -0.515625,0 -0.8125,-0.328125 -0.8125,-0.9375 0,-0.3125 0.078125,-0.65625 0.125,-0.796875 z m 0,0"
             id="path82" />
        </g>
      </g>
      <g
         fill="#000000"
         fill-opacity="1"
         id="g46"
         transform="matrix(0.352778,0,0,0.352778,-0.418924,0.046258)">
        <g
           id="use44"
           transform="translate(26.1,6.3340001)">
          <path
             d="M 3.59375,-2.21875 C 3.59375,-2.984375 3.5,-3.546875 3.1875,-4.03125 2.96875,-4.34375 2.53125,-4.625 1.984375,-4.625 c -1.625,0 -1.625,1.90625 -1.625,2.40625 0,0.5 0,2.359375 1.625,2.359375 1.609375,0 1.609375,-1.859375 1.609375,-2.359375 z M 1.984375,-0.0625 c -0.328125,0 -0.75,-0.1875 -0.890625,-0.75 C 1,-1.21875 1,-1.796875 1,-2.3125 1,-2.828125 1,-3.359375 1.09375,-3.734375 1.25,-4.28125 1.6875,-4.4375 1.984375,-4.4375 c 0.375,0 0.734375,0.234375 0.859375,0.640625 0.109375,0.375 0.125,0.875 0.125,1.484375 0,0.515625 0,1.03125 -0.09375,1.46875 -0.140625,0.640625 -0.609375,0.78125 -0.890625,0.78125 z m 0,0"
             id="path86" />
        </g>
      </g>
      <path
         fill="none"
         stroke-width="0.598"
         stroke-linecap="butt"
         stroke-linejoin="miter"
         stroke="#000000"
         stroke-opacity="1"
         stroke-miterlimit="10"
         d="M 11.167969,7.3615937 H 35.316406"
         id="path48"
         transform="scale(0.352778)" />
      <g
         clip-path="url(#clipPath2206)"
         id="g56"
         transform="matrix(0.352778,0,0,0.352778,-0.418924,0.046258)">
        <g
           fill="#000000"
           fill-opacity="1"
           id="g19988">
          <g
             id="use50"
             transform="translate(12.354,16.309)">
            <path
               d="m 1.734375,-7.78125 c 0,-0.203125 0,-0.390625 -0.21875,-0.390625 -0.21875,0 -0.21875,0.1875 -0.21875,0.390625 V 2.328125 c 0,0.203125 0,0.390625 0.21875,0.390625 0.21875,0 0.21875,-0.1875 0.21875,-0.390625 z m 0,0"
               id="path90" />
          </g>
          <g
             id="g19986"
             transform="translate(15.384548,16.309)">
            <path
               d="m 1.734375,-7.78125 c 0,-0.203125 0,-0.390625 -0.21875,-0.390625 -0.21875,0 -0.21875,0.1875 -0.21875,0.390625 V 2.328125 c 0,0.203125 0,0.390625 0.21875,0.390625 0.21875,0 0.21875,-0.1875 0.21875,-0.390625 z m 0,0"
               id="path94" />
          </g>
        </g>
      </g>
      <g
         fill="#000000"
         fill-opacity="1"
         id="g60"
         transform="matrix(0.352778,0,0,0.352778,-0.418924,0.046258)">
        <g
           id="use58"
           transform="translate(18.414,16.309)">
          <path
             d="m 8.03125,-4.09375 c 0.0625,-0.15625 0.109375,-0.234375 0.75,-0.234375 V -4.84375 c -0.25,0.015625 -0.578125,0.03125 -0.84375,0.03125 -0.296875,0 -0.8125,-0.015625 -1.046875,-0.03125 v 0.515625 c 0.09375,0 0.640625,0.015625 0.640625,0.125 0,0.03125 -0.03125,0.109375 -0.046875,0.140625 l -1.140625,2.78125 -1.25,-3.046875 H 5.703125 V -4.84375 C 5.359375,-4.828125 4.78125,-4.8125 4.453125,-4.8125 4,-4.8125 3.546875,-4.828125 3.375,-4.84375 v 0.515625 H 4.015625 C 4.25,-3.78125 4.25,-3.765625 4.25,-3.75 c 0,0.046875 -0.046875,0.109375 -0.046875,0.140625 L 3.34375,-1.515625 2.1875,-4.328125 H 2.796875 V -4.84375 C 2.359375,-4.828125 1.90625,-4.8125 1.46875,-4.8125 1.125,-4.8125 0.640625,-4.828125 0.265625,-4.84375 v 0.515625 h 0.65625 L 2.578125,-0.25 c 0.078125,0.1875 0.125,0.296875 0.40625,0.296875 C 3.25,0.046875 3.296875,-0.0625 3.375,-0.25 L 4.53125,-3.078125 5.6875,-0.25 c 0.078125,0.1875 0.109375,0.296875 0.390625,0.296875 0.265625,0 0.3125,-0.109375 0.390625,-0.296875 z m 0,0"
             id="path98" />
        </g>
      </g>
      <g
         fill="#000000"
         fill-opacity="1"
         id="g64"
         transform="matrix(0.352778,0,0,0.352778,-0.418924,0.046258)">
        <g
           id="use62"
           transform="translate(27.649,13.157)">
          <path
             d="m 2.015625,-3.296875 c 0.0625,-0.109375 0.0625,-0.171875 0.0625,-0.21875 0,-0.21875 -0.1875,-0.375 -0.40625,-0.375 -0.265625,0 -0.34375,0.21875 -0.375,0.328125 L 0.375,-0.546875 c -0.015625,0.015625 -0.046875,0.09375 -0.046875,0.109375 0,0.078125 0.21875,0.15625 0.28125,0.15625 0.046875,0 0.046875,-0.015625 0.09375,-0.125 z m 0,0"
             id="path102" />
        </g>
      </g>
      <g
         clip-path="url(#clipPath9662)"
         id="g20002"
         transform="matrix(0.352778,0,0,0.352778,-0.418924,0.046258)">
        <g
           fill="#000000"
           fill-opacity="1"
           id="g70">
          <g
             id="use66"
             transform="translate(30.444,16.309)">
            <path
               d="m 1.734375,-7.78125 c 0,-0.203125 0,-0.390625 -0.21875,-0.390625 -0.21875,0 -0.21875,0.1875 -0.21875,0.390625 V 2.328125 c 0,0.203125 0,0.390625 0.21875,0.390625 0.21875,0 0.21875,-0.1875 0.21875,-0.390625 z m 0,0"
               id="path106" />
          </g>
          <g
             id="use68"
             transform="translate(33.474548,16.309)">
            <path
               d="m 1.734375,-7.78125 c 0,-0.203125 0,-0.390625 -0.21875,-0.390625 -0.21875,0 -0.21875,0.1875 -0.21875,0.390625 V 2.328125 c 0,0.203125 0,0.390625 0.21875,0.390625 0.21875,0 0.21875,-0.1875 0.21875,-0.390625 z m 0,0"
               id="path110" />
          </g>
        </g>
      </g>
    </g>
  </g>
</svg>
