<?xml version="1.0" standalone="no"?>
<!DOCTYPE svg PUBLIC "-//W3C//DTD SVG 20010904//EN"
 "http://www.w3.org/TR/2001/REC-SVG-20010904/DTD/svg10.dtd">
<svg version="1.0" xmlns="http://www.w3.org/2000/svg"
 width="512.000000pt" height="512.000000pt" viewBox="0 0 512.000000 512.000000"
 preserveAspectRatio="xMidYMid meet">
<metadata>
Created by potrace 1.14, written by Peter Selinger 2001-2017
</metadata>
<g transform="translate(0.000000,512.000000) scale(0.100000,-0.100000)"
fill="#000000" stroke="none">
<path d="M4527 5029 c-84 -19 -172 -83 -220 -160 -30 -49 -49 -138 -45 -203 6
-69 44 -159 82 -196 l25 -23 -43 -81 c-24 -45 -68 -126 -98 -181 -30 -55 -72
-131 -93 -170 -20 -38 -48 -88 -60 -110 -12 -22 -38 -69 -57 -105 -44 -81
-274 -502 -300 -550 -65 -116 -58 -108 -88 -100 -29 8 -59 7 -126 -4 l-41 -7
-328 491 -327 492 19 26 c40 56 64 132 64 200 -1 78 -11 118 -45 176 -44 75
-138 145 -219 162 -79 17 -185 -1 -257 -45 -119 -72 -185 -240 -146 -373 9
-31 16 -59 16 -62 0 -3 -107 -94 -237 -202 -131 -108 -246 -204 -256 -212 -16
-14 -21 -13 -60 5 -56 28 -76 33 -139 38 -88 7 -190 -30 -250 -90 l-26 -25
-213 107 -214 108 -2 70 c-3 137 -72 249 -193 311 -48 25 -66 28 -145 29 -79
0 -97 -4 -147 -28 -80 -39 -149 -117 -176 -199 -53 -164 17 -333 173 -416 45
-24 60 -27 150 -27 91 1 105 3 150 29 28 16 62 40 78 54 l27 26 214 -104 214
-105 0 -65 c0 -78 7 -110 38 -172 32 -63 90 -119 161 -153 48 -24 71 -29 139
-29 71 -1 88 3 147 32 152 75 228 241 182 397 -13 48 -14 60 -3 70 7 7 67 57
133 111 66 54 122 101 125 104 3 3 58 49 123 103 l118 98 57 -28 c47 -23 70
-28 132 -28 41 0 86 3 100 7 24 6 41 -18 353 -486 l328 -493 -32 -51 c-72
-117 -68 -262 11 -376 37 -54 72 -84 135 -112 189 -87 409 13 468 213 31 105
2 242 -68 318 l-26 27 42 76 c23 43 54 100 69 127 15 28 96 176 180 330 84
154 174 318 199 365 25 47 84 155 131 241 l85 156 60 -5 c120 -9 245 51 312
152 42 62 57 114 57 202 0 82 -28 150 -89 221 -71 83 -213 127 -328 102z"/>
<path d="M4298 3582 c-70 -3 -79 -5 -100 -30 l-23 -28 0 -1398 0 -1398 28 -24
28 -24 370 0 371 0 29 29 29 29 0 1379 c0 942 -3 1389 -10 1410 -19 52 -31 54
-351 56 -162 1 -329 1 -371 -1z"/>
<path d="M2155 3215 c-14 -13 -25 -34 -26 -47 -1 -13 -2 -560 -3 -1217 -1
-911 2 -1201 11 -1222 7 -16 24 -34 38 -39 38 -15 727 -13 759 1 14 7 30 25
36 42 7 20 10 419 10 1234 0 1109 -1 1207 -17 1233 -9 16 -26 31 -37 34 -12 3
-184 6 -384 6 l-363 0 -24 -25z"/>
<path d="M123 2890 c-12 -5 -27 -19 -34 -32 -9 -17 -12 -261 -12 -1058 0 -569
3 -1047 6 -1062 14 -56 32 -58 421 -58 239 0 363 4 379 11 14 6 30 22 36 36
11 25 17 2076 5 2119 -3 11 -18 28 -34 37 -25 15 -69 17 -387 16 -197 0 -368
-4 -380 -9z"/>
<path d="M1152 2379 c-11 -4 -27 -18 -36 -31 -15 -20 -16 -101 -16 -816 l0
-794 29 -29 29 -29 367 0 c232 0 373 4 386 10 46 25 45 18 44 850 -1 850 1
818 -55 839 -29 11 -717 11 -748 0z"/>
<path d="M3194 1692 c-14 -7 -29 -24 -34 -38 -14 -37 -13 -896 1 -927 6 -14
22 -30 36 -36 16 -7 143 -11 389 -11 l365 0 23 25 c13 14 26 38 28 53 2 15 3
222 3 460 l-1 433 -27 27 -27 26 -365 1 c-283 0 -371 -3 -391 -13z"/>
<path d="M58 588 c-56 -11 -58 -21 -58 -253 0 -203 1 -213 21 -231 21 -19 78
-19 2518 -21 1649 -1 2505 2 2522 8 47 18 52 42 52 255 l0 196 -27 26 -26 27
-2485 0 c-1366 0 -2499 -3 -2517 -7z"/>
</g>
</svg>
